<svg t="1694599260083" class="icon" viewBox="0 0 1024 1024" version="1.1" xmlns="http://www.w3.org/2000/svg" p-id="4004" width="200" height="200">
	<path d="M452.608 583.68c8.192 8.192 8.192 20.48 0 28.672L208.896 856.064c44.032 0 113.664-3.072 133.12-8.192 11.264-3.072 22.528 3.072 25.6 14.336s-3.072 22.528-14.336 25.6c-11.264 3.072-76.8 10.24-132.096 10.24-22.528 0-43.008-1.024-56.32-4.096H163.84c-5.12 0-10.24-2.048-14.336-6.144l-1.024-1.024c-23.552-23.552-6.144-187.392-1.024-203.776 3.072-11.264 14.336-17.408 25.6-14.336 11.264 3.072 17.408 14.336 14.336 25.6-6.144 21.504-10.24 93.184-9.216 137.216l245.76-245.76c8.192-10.24 20.48-10.24 28.672-2.048z m452.608-456.704c-22.528-22.528-186.368-6.144-203.776-1.024-11.264 3.072-17.408 14.336-14.336 25.6 3.072 11.264 14.336 17.408 25.6 14.336 20.48-5.12 95.232-9.216 138.24-8.192L578.56 429.056c-8.192 8.192-8.192 20.48 0 28.672 4.096 4.096 9.216 6.144 14.336 6.144s10.24-2.048 14.336-6.144l268.288-268.288c0 44.032-3.072 111.616-8.192 131.072-3.072 11.264 3.072 22.528 14.336 25.6 2.048 0 4.096 1.024 5.12 1.024 9.216 0 17.408-6.144 19.456-15.36 5.12-18.432 21.504-182.272-1.024-204.8z" p-id="4005">
	</path>
</svg>
