<?xml version="1.0" standalone="no"?><!DOCTYPE svg PUBLIC "-//W3C//DTD SVG 1.1//EN" "http://www.w3.org/Graphics/SVG/1.1/DTD/svg11.dtd"><svg class="icon" width="200px" height="200.00px" viewBox="0 0 1024 1024" version="1.1" xmlns="http://www.w3.org/2000/svg"><path d="M601.1 571.4c-7.6 0-15.2 2.9-21 8.7-11.6 11.6-11.6 30.4 0 42l288.4 288.4c5.8 5.8 13.4 8.7 21 8.7s15.2-2.9 21-8.7c11.6-11.6 11.6-30.4 0-42L622.2 580.1c-5.8-5.8-13.5-8.7-21.1-8.7z" fill="#707070" /><path d="M928 868.6V720c0-7.6-2.9-15.2-8.7-21s-13.4-8.7-21-8.7-15.2 2.9-21 8.7-8.7 13.4-8.7 21v148.6H720c-7.6 0-15.2 2.9-21 8.7s-8.7 13.4-8.7 21 2.9 15.2 8.7 21 13.4 8.7 21 8.7h148.6c32.8 0 59.4-26.6 59.4-59.4zM134.4 104.7c-7.6 0-15.2 2.9-21 8.7-11.6 11.6-11.6 30.4 0 42l288.4 288.4c5.8 5.8 13.4 8.7 21 8.7s15.2-2.9 21-8.7c11.6-11.6 11.6-30.4 0-42L155.4 113.4c-5.8-5.8-13.4-8.7-21-8.7z" fill="#707070" /><path d="M96 155.4V304c0 7.6 2.9 15.2 8.7 21 5.8 5.8 13.4 8.7 21 8.7s15.2-2.9 21-8.7c5.8-5.8 8.7-13.4 8.7-21V155.4H304c7.6 0 15.2-2.9 21-8.7 5.8-5.8 8.7-13.4 8.7-21s-2.9-15.2-8.7-21c-5.8-5.8-13.4-8.7-21-8.7H155.4C122.6 96 96 122.6 96 155.4z" fill="#707070" /></svg>