<svg t="1694513694512" class="icon" viewBox="0 0 1024 1024" version="1.1" xmlns="http://www.w3.org/2000/svg" p-id="1688" width="200" height="200">
	<path d="M897.714 174.5l0 562.5q0 25.111-17.077 44.698t-43.192 30.384-51.982 16.072-48.466 5.273-48.466-5.273-51.982-16.072-43.192-30.384-17.077-44.698 17.077-44.698 43.192-30.384 51.982-16.072 48.466-5.273q52.734 0 96.428 19.587l0-269.698-385.714 119.03 0 356.083q0 25.111-17.077 44.698t-43.193 30.384-51.982 16.072-48.466 5.273-48.466-5.273-51.982-16.072-43.193-30.384-17.077-44.698 17.077-44.698 43.193-30.384 51.982-16.072 48.466-5.273q52.734 0 96.428 19.587l0-485.658q0-15.569 9.542-28.376t24.609-17.829l417.858-128.572q6.026-2.009 14.063-2.009 20.089 0 34.151 14.063t14.063 34.151z" fill="#272636" p-id="1689">
	</path>
</svg>
