<svg class="icon" width="200px" height="200.00px" viewBox="0 0 1024 1024" version="1.1" xmlns="http://www.w3.org/2000/svg">
	<path d="M6.070857 731.648c0 27.428571 20.150857 46.281143 50.578286 46.281143h97.718857c73.691429 0 118.272-21.430857 171.428571-83.565714l96.420572-112.292572 96 112.274286c53.138286 62.171429 97.28 84.004571 172.288 84.004571h78.427428v95.140572c0 23.149714 14.573714 37.723429 38.582858 37.723428 10.276571 0 20.992-3.84 28.708571-10.715428l161.993143-133.705143c19.712-15.872 19.291429-41.581714 0-57.435429l-162.011429-134.582857a44.105143 44.105143 0 0 0-28.708571-10.697143c-23.990857 0-38.582857 14.573714-38.582857 37.705143v83.145143H692.662857c-44.141714 0-71.570286-14.134857-106.715428-54.857143l-102.418286-119.570286 102.418286-119.149714c35.145143-41.142857 62.573714-55.277714 106.715428-55.277714h76.288v86.125714c0 23.168 14.573714 37.723429 38.582857 37.723429 10.276571 0 20.992-3.84 28.708572-10.715429l161.993143-133.705143c19.712-15.853714 19.291429-41.142857 0-57.417143l-162.011429-134.582857a44.105143 44.105143 0 0 0-28.708571-10.715428c-23.990857 0-38.582857 14.573714-38.582858 37.705143v92.580571h-78.409142c-75.008 0-119.149714 21.851429-172.288 84.004571l-96 112.274286-96.420572-112.274286c-53.156571-62.153143-97.718857-84.004571-171.446857-84.004571H56.649143c-30.427429 0-50.578286 18.852571-50.578286 46.72 0 27.428571 20.571429 46.701714 50.578286 46.701714h99.419428c41.581714 0 67.712 14.153143 102.436572 54.857143l102.418286 119.149714-102.418286 119.588572c-35.145143 40.704-61.293714 54.857143-102.436572 54.857143H56.649143c-29.988571 0-50.578286 19.273143-50.578286 46.701714z" fill="#707070" />
</svg>
